<?xml version="1.0" encoding="UTF-8"?>
<svg id="_圖層_1" data-name="圖層_1" xmlns="http://www.w3.org/2000/svg" version="1.1" viewBox="0 0 14 14">
  <!-- Generator: Adobe Illustrator 29.8.9, SVG Export Plug-In . SVG Version: 2.1.1 Build 1)  -->
  <defs>
    <style>
      .st0 {
        fill: none;
        stroke: #fff;
        stroke-linecap: round;
        stroke-width: 1.5px;
      }
    </style>
  </defs>
  <g id="send">
    <path id="Vector" class="st0" d="M12.75,1.25l-6.38,6.38M8.48,12.65c.02.06.06.1.11.14.05.03.11.05.17.05.06,0,.12-.02.17-.06.05-.04.08-.08.1-.14L12.82,1.55c.02-.05.02-.11.01-.16-.01-.05-.04-.1-.08-.14-.04-.04-.09-.07-.14-.08-.05-.01-.11,0-.16.01L1.36,4.97c-.06.02-.11.06-.14.1s-.05.11-.06.17c0,.06.02.12.05.17.03.05.08.09.14.11l4.63,1.85c.15.06.28.15.39.26.11.11.2.24.26.39l1.86,4.63Z"/>
  </g>
</svg>