<svg preserveAspectRatio="none" overflow="visible" style="display: block;" width="175" height="24" viewBox="0 0 175 24" fill="none" xmlns="http://www.w3.org/2000/svg">
<g id="Vector">
<path d="M0.596042 0.311774C0.892281 0.0630679 1.33005 -0.0487308 1.7465 0.0198794C2.14558 0.0842407 2.49334 0.311222 2.70797 0.645507L9.47822 9.79251L16.3089 0.602696C16.4978 0.306862 16.8501 0.0842321 17.245 0.0198794C17.6529 -0.044444 18.0824 0.067129 18.413 0.324423C18.7135 0.525976 18.9235 0.847705 18.9965 1.2293C19.078 1.64091 18.9796 2.0743 18.7306 2.41731L11.0115 12.7854V22.5074C11.0114 23.3435 10.3286 24 9.51719 24C8.70582 24 8.02298 23.3135 8.02286 22.5074V12.8457L0.269706 2.42509C-0.193891 1.70039 -0.0436318 0.762017 0.596042 0.311774Z" fill="#09161A" fill-opacity="0.95"/>
<path d="M45.7288 6.95822C46.5822 6.95912 47.2512 7.61432 47.2514 8.4498V16.9235C47.2514 20.8258 44.0006 23.999 40.1324 23.999C36.2643 23.9988 33.1137 20.8256 33.1137 16.9235V8.4498C33.1139 7.61383 33.7701 6.95835 34.6071 6.95822C35.4442 6.95822 36.1012 7.61375 36.1014 8.4498V16.9235C36.1014 19.192 37.8791 20.9931 40.146 21.0188C42.4385 20.9886 44.2374 19.1919 44.2374 16.9235V8.4498C44.2376 7.64031 44.9228 6.95964 45.7288 6.95822Z" fill="#09161A" fill-opacity="0.95"/>
<path d="M61.69 0.0111226C64.4332 0.0111916 67.1419 0.932878 69.3185 2.60509C69.6705 2.89666 69.8854 3.31255 69.9069 3.75419C69.9283 4.13584 69.8038 4.49632 69.5591 4.7622C69.3487 5.05796 69.0093 5.26359 68.623 5.32361C68.211 5.39206 67.7909 5.28046 67.4647 5.01906C65.786 3.71115 63.7891 3.02056 61.6939 3.02056L61.6988 3.02542C56.5811 3.02542 52.4201 7.15069 52.4201 12.0693C52.4202 16.9878 56.5812 20.9886 61.6988 20.9886C63.8538 20.9885 65.8762 20.2858 67.3916 19.0037L67.4472 18.96C67.8291 18.7072 68.2798 18.6216 68.696 18.7157C69.0481 18.7972 69.3534 19.0075 69.5552 19.3034C69.7913 19.5436 69.9283 19.9257 69.9069 20.3202C69.881 20.7703 69.6578 21.1907 69.3058 21.4479C67.1678 23.0901 64.463 23.999 61.6939 23.999C54.9148 23.999 49.3984 18.7974 49.3984 12.0693C49.3984 5.34106 54.7992 0.0454284 61.69 0.0111226Z" fill="#09161A" fill-opacity="0.95"/>
<path d="M96.7482 7.02146C98.9207 7.02146 100.982 8.03423 102.317 9.74095C103.677 8.03541 105.74 7.02285 107.898 7.02146C111.786 7.02369 114.948 10.184 114.948 14.0678V22.5405C114.948 23.3424 114.257 23.999 113.454 23.999C112.651 23.9989 111.994 23.3466 111.994 22.5405V14.0678C111.939 11.7737 110.135 9.97264 107.894 9.97252C105.653 9.97252 103.828 11.8122 103.828 14.0678V22.6349C103.828 22.6778 103.829 22.7853 103.76 22.991C103.597 23.4799 103.193 23.72 103.06 23.8015C102.789 23.9387 102.553 23.999 102.304 23.999L102.077 23.9815C101.647 23.9129 101.342 23.673 101.257 23.6001L101.175 23.5145C100.831 23.0815 100.81 22.6739 100.814 22.5152V14.0629C100.814 11.8031 98.9893 9.96765 96.7482 9.96765C94.5073 9.96786 92.6832 11.8075 92.6832 14.0629V22.5366C92.6831 23.0296 92.434 23.4796 92.0178 23.7412C91.9578 23.7926 91.8287 23.8789 91.6701 23.9261C91.5241 23.9946 91.3606 23.9942 91.2833 23.9942H91.0339C90.4588 23.9297 89.9607 23.5013 89.7676 22.9268L89.7286 22.7809V8.47996C89.7286 7.67806 90.4074 7.02146 91.1888 7.02146C91.9702 7.02149 92.5928 7.58381 92.6744 8.32136C93.8507 7.48095 95.2801 7.02154 96.7482 7.02146Z" fill="#09161A" fill-opacity="0.95"/>
<path fill-rule="evenodd" clip-rule="evenodd" d="M23.045 6.98741C27.5143 6.98741 31.1469 10.8043 31.1469 15.4913C31.1469 20.1783 27.5144 23.9951 23.045 23.9951C18.5758 23.995 14.9441 20.1782 14.9441 15.4913C14.9442 10.8044 18.5801 6.98758 23.045 6.98741ZM23.045 9.93846C20.2717 9.93864 17.9279 12.4468 17.9279 15.4913C17.9279 18.5358 20.2245 21.0147 23.045 21.0149C25.8657 21.0149 28.1631 18.5016 28.1631 15.4913C28.1631 12.481 25.8185 9.93846 23.045 9.93846Z" fill="#09161A" fill-opacity="0.95"/>
<path fill-rule="evenodd" clip-rule="evenodd" d="M85.9684 6.98741C86.8056 6.98741 87.4627 7.64383 87.4628 8.47996V22.5026C87.4628 23.3131 86.7799 23.9951 85.9684 23.9951C85.157 23.9951 84.4741 23.3088 84.4741 22.5026V22.0521C83.0187 23.3085 81.2202 23.9951 79.357 23.9951C74.8876 23.9951 71.2551 20.1783 71.2551 15.4913C71.2551 10.8043 74.8919 6.98741 79.357 6.98741C81.2286 6.98746 83.0274 7.66514 84.4741 8.90418V8.47996C84.4742 7.64383 85.1313 6.98741 85.9684 6.98741ZM79.3609 9.93846C76.5403 9.93855 74.2438 12.4467 74.2437 15.4913C74.2437 18.5359 76.5402 21.0148 79.3609 21.0149C82.1816 21.0149 84.479 18.5531 84.479 15.4913C84.4789 12.4295 82.1815 9.93846 79.3609 9.93846Z" fill="#09161A" fill-opacity="0.95"/>
<path fill-rule="evenodd" clip-rule="evenodd" d="M160.053 0.0430117C164.639 0.0430917 168.357 3.75689 168.357 8.33769C168.357 12.9183 164.639 16.6313 160.053 16.6314H154.121V22.0597C154.121 23.1065 153.271 23.955 152.223 23.955C151.175 23.9549 150.325 23.1064 150.325 22.0597V2.88704C150.325 1.31646 151.6 0.0430117 153.173 0.0430117H160.053ZM154.121 12.8397H160.053C162.542 12.8396 164.561 10.8242 164.561 8.33769C164.561 5.85099 162.542 3.8348 160.053 3.83472H154.121V12.8397Z" fill="#3183FF"/>
<path d="M173.102 0.245392C174.151 0.245512 175 1.09388 175 2.14076V22.047C175 23.094 174.151 23.9432 173.102 23.9433C172.054 23.9433 171.204 23.0941 171.204 22.047V2.14076C171.204 1.0938 172.054 0.245392 173.102 0.245392Z" fill="#3183FF"/>
<path fill-rule="evenodd" clip-rule="evenodd" d="M136.311 0.0430117C137.039 0.0430117 137.704 0.458706 138.021 1.11329L144.201 13.8788L144.202 13.8808L144.211 13.9022L144.214 13.907L147.525 21.0497C147.965 21.9997 147.55 23.1261 146.599 23.5658C145.648 24.0052 144.52 23.5912 144.08 22.6415L141.279 16.5993H131.345L128.544 22.6415C128.104 23.5913 126.976 24.0054 126.024 23.5658C125.073 23.1261 124.659 21.9998 125.099 21.0497L128.41 13.907L128.412 13.9022L128.422 13.8808L128.423 13.8788L134.603 1.11329C134.605 1.10749 134.608 1.10146 134.611 1.09578L134.66 1.00529C134.662 1.0014 134.665 0.99744 134.667 0.993615C135.004 0.409181 135.629 0.043234 136.311 0.0430117ZM133.158 12.8076H139.465L136.311 6.29345L133.158 12.8076Z" fill="#3183FF"/>
</g>
</svg>
