<svg preserveAspectRatio="none" overflow="visible" style="display: block;" width="20" height="20" viewBox="0 0 20 20" fill="none" xmlns="http://www.w3.org/2000/svg">
<g id="Frame">
<path id="Vector" d="M7.5 2.5H4.16667C3.24619 2.5 2.5 3.24619 2.5 4.16667V7.5C2.5 8.42047 3.24619 9.16667 4.16667 9.16667H7.5C8.42047 9.16667 9.16667 8.42047 9.16667 7.5V4.16667C9.16667 3.24619 8.42047 2.5 7.5 2.5Z" stroke="#3183FF" stroke-width="2" stroke-linecap="round" stroke-linejoin="round"/>
<path id="Vector_2" d="M5.83333 9.16667V12.5C5.83333 12.942 6.00893 13.366 6.32149 13.6785C6.63405 13.9911 7.05797 14.1667 7.5 14.1667H10.8333" stroke="#3183FF" stroke-width="2" stroke-linecap="round" stroke-linejoin="round"/>
<path id="Vector_3" d="M15.8333 10.8333H12.5C11.5795 10.8333 10.8333 11.5795 10.8333 12.5V15.8333C10.8333 16.7538 11.5795 17.5 12.5 17.5H15.8333C16.7538 17.5 17.5 16.7538 17.5 15.8333V12.5C17.5 11.5795 16.7538 10.8333 15.8333 10.8333Z" stroke="#3183FF" stroke-width="2" stroke-linecap="round" stroke-linejoin="round"/>
</g>
</svg>
