<svg preserveAspectRatio="none" overflow="visible" style="display: block;" width="20" height="20" viewBox="0 0 20 20" fill="none" xmlns="http://www.w3.org/2000/svg">
<g id="user-round-check">
<path id="Vector" d="M1.66667 17.5C1.6666 16.2169 2.03678 14.9611 2.73279 13.8832C3.4288 12.8053 4.42106 11.9512 5.5905 11.4233C6.75994 10.8954 8.05686 10.7162 9.32563 10.9072C10.5944 11.0982 11.7811 11.6512 12.7433 12.5" stroke="#3183FF" stroke-width="2" stroke-linecap="round" stroke-linejoin="round"/>
<path id="Vector_2" d="M8.33333 10.8333C10.6345 10.8333 12.5 8.96785 12.5 6.66667C12.5 4.36548 10.6345 2.5 8.33333 2.5C6.03215 2.5 4.16667 4.36548 4.16667 6.66667C4.16667 8.96785 6.03215 10.8333 8.33333 10.8333Z" stroke="#3183FF" stroke-width="2" stroke-linecap="round" stroke-linejoin="round"/>
<path id="Vector_3" d="M13.3333 15.8333L15 17.5L18.3333 14.1667" stroke="#3183FF" stroke-width="2" stroke-linecap="round" stroke-linejoin="round"/>
</g>
</svg>
